<svg width="32" height="33" viewBox="0 0 32 33" fill="none" xmlns="http://www.w3.org/2000/svg">
<rect y="0.904541" width="32" height="32" rx="2" fill="black"/>
<mask id="mask0_21_2" style="mask-type:luminance" maskUnits="userSpaceOnUse" x="1" y="15" width="29" height="4">
<path d="M30 15.1824H1V18.7077H30V15.1824Z" fill="white"/>
</mask>
<g mask="url(#mask0_21_2)">
<path fill-rule="evenodd" clip-rule="evenodd" d="M20.9707 18.6972L23.0366 15.1824H29.9591V15.7619H24.7666L24.2537 16.6486H26.9949L26.6644 17.2281H23.9087L23.3814 18.1148H26.137L25.7923 18.6972H20.9707ZM16.0013 17.7815H18.0788C18.0093 17.8829 17.9774 17.9844 18.0209 18.0481C18.0962 18.1611 18.3628 18.106 18.4324 18.0829C18.5714 18.0394 18.6468 17.9525 18.7134 17.8366L19.0611 17.2281H16.943C16.4996 17.2281 16.4852 16.9644 16.6649 16.6486L17.3168 15.5417C17.5109 15.2229 17.7718 15.1824 18.1049 15.1824H21.7878C22.1616 15.1824 22.1616 15.4866 22.0109 15.7619L21.8023 16.1357H19.7131C19.7769 16.014 19.7797 15.9068 19.7305 15.8401C19.6494 15.73 19.435 15.7532 19.322 15.8112C19.2321 15.8604 19.1568 15.9444 19.0756 16.0806L18.7424 16.6486H20.7911C21.2228 16.6486 21.2895 16.9644 21.1533 17.2281L20.5303 18.2683C20.3622 18.5436 20.0725 18.6972 19.7392 18.6972H16.0825C15.7232 18.6972 15.5986 18.4596 15.7521 18.1988L16.0013 17.7815ZM11.6259 15.7619C11.9591 15.1824 12.5125 15.1824 12.9414 15.1824H16.0709C16.4011 15.1824 16.6793 15.4576 16.4996 15.7619L15.1175 18.1148C14.8248 18.5842 14.5901 18.6972 14.2163 18.6972H10.574C10.2147 18.6972 10.0496 18.4335 10.2437 18.1148L11.6259 15.7619ZM13.4427 16.0806L12.388 17.8366C12.3532 17.9003 12.3387 17.9583 12.359 18.0046C12.4256 18.1495 12.8342 18.1234 12.9762 18.0945C13.179 18.0481 13.2312 17.9032 13.2746 17.8366L14.3149 16.0806C14.3873 15.956 14.3786 15.8749 14.3149 15.8256C14.2221 15.7532 13.9382 15.7474 13.7817 15.7909C13.6484 15.8285 13.5383 15.9126 13.4427 16.0806ZM6.57245 15.1824H10.5885C10.9073 15.1824 11.1565 15.4721 10.9478 15.8198L10.5335 16.524C10.3538 16.8427 10.0496 16.9934 9.82647 16.9934C10.0496 17.118 10.0496 17.3382 9.93657 17.5323L9.52222 18.2538C9.4121 18.4479 9.24404 18.6972 8.73406 18.6972H1.01773V18.1148H4.84258L6.57245 15.1824ZM7.77786 16.6486H8.80071C9.03831 16.6486 9.13393 16.524 9.189 16.4139L9.39762 16.0806C9.48164 15.93 9.48164 15.7619 9.30199 15.7619H8.30231L7.77786 16.6486ZM6.90568 18.1148H7.92852C8.16613 18.1148 8.26175 17.9901 8.31677 17.88L8.52544 17.5468C8.60946 17.3933 8.60946 17.2281 8.42692 17.2281H7.43013L6.90568 18.1148ZM29.6894 16.466C29.5302 16.466 29.394 16.3414 29.394 16.1734C29.394 16.0053 29.5302 15.8836 29.6894 15.8836C29.8489 15.8836 29.9822 16.0053 29.9822 16.1734C29.9824 16.3414 29.8489 16.466 29.6894 16.466ZM29.4519 16.1734C29.4519 16.3124 29.5564 16.4168 29.6894 16.4168C29.82 16.4168 29.9242 16.3124 29.9242 16.1734C29.9242 16.0343 29.82 15.93 29.6894 15.93C29.5564 15.93 29.4519 16.0343 29.4519 16.1734ZM29.6288 16.1965V16.3414H29.5765V16.0053H29.7041C29.7853 16.0053 29.8229 16.0343 29.8229 16.1009C29.8229 16.1618 29.7851 16.1878 29.736 16.1936L29.8315 16.3414H29.7736L29.6867 16.1965H29.6288ZM29.6288 16.1531H29.6896C29.7331 16.1531 29.7709 16.1502 29.7709 16.098C29.7709 16.0575 29.7331 16.0488 29.6982 16.0488H29.6288V16.1531Z" fill="white"/>
</g>
</svg>
